<?xml version="1.0" encoding="UTF-8" standalone="no"?>
<!DOCTYPE svg PUBLIC "-//W3C//DTD SVG 1.1//EN" "http://www.w3.org/Graphics/SVG/1.1/DTD/svg11.dtd">
<svg width="100%" height="100%" viewBox="0 0 100 100" version="1.1" xmlns="http://www.w3.org/2000/svg" xmlns:xlink="http://www.w3.org/1999/xlink" xml:space="preserve" xmlns:serif="http://www.serif.com/" style="fill-rule:evenodd;clip-rule:evenodd;stroke-linejoin:round;stroke-miterlimit:2;">
    <g transform="matrix(4.16667,0,0,4.16667,0,0)">
        <rect x="0" y="0" width="24" height="24" style="fill:none;fill-rule:nonzero;"/>
        <path d="M12,6L12,1L21,5L21,11C21,16.517 17.205,21.678 12,23L12,18L14,18L14,14L18,14L18,10L14,10L14,6L12,6Z" style="fill:white;fill-opacity:0.8;"/>
        <path d="M12,6L10,6L10,10L6,10L6,14L10,14L10,18L12,18M12,23C6.84,21.74 3,16.55 3,11L3,5L12,1L12,23Z" style="fill:white;"/>
    </g>
</svg>
