<svg height="496pt" viewBox="0 0 496 496" width="496pt" xmlns="http://www.w3.org/2000/svg"><g fill="#f0bc5e"><path d="m172 496h-44c-70.574219 0-128-57.425781-128-128v-44c0-28.671875 23.328125-52 52-52s52 23.328125 52 52v28c0 22.054688 17.945312 40 40 40h28c28.671875 0 52 23.328125 52 52s-23.328125 52-52 52zm0 0"/><path d="m408.566406 496c-35.597656 0-64.566406-28.96875-64.566406-64.566406 0-17.242188 6.71875-33.464844 18.910156-45.65625l22.859375-22.855469c12.199219-12.203125 28.414063-18.921875 45.664063-18.921875 35.597656 0 64.566406 28.96875 64.566406 64.566406 0 17.242188-6.71875 33.464844-18.910156 45.65625l-22.859375 22.855469c-12.199219 12.203125-28.414063 18.921875-45.664063 18.921875zm0 0"/><path d="m64.566406 152c-35.597656 0-64.566406-28.96875-64.566406-64.566406 0-17.242188 6.71875-33.464844 18.910156-45.65625l22.859375-22.855469c12.199219-12.203125 28.414063-18.921875 45.664063-18.921875 35.597656 0 64.566406 28.96875 64.566406 64.566406 0 17.242188-6.71875 33.464844-18.910156 45.65625l-22.859375 22.855469c-12.199219 12.203125-28.414063 18.921875-45.664063 18.921875zm0 0"/></g><path d="m496 176v-16h-56.457031c-.75-9.457031-2.664063-18.558594-5.605469-27.222656l53.910156-22.328125-6.128906-14.785157-54.007812 22.367188c-4.214844-8.304688-9.414063-16.007812-15.464844-22.976562l41.402344-41.398438-11.3125-11.3125-41.398438 41.398438c-6.96875-6.054688-14.671875-11.246094-22.976562-15.460938l22.367187-54.007812-14.785156-6.128907-22.328125 53.910157c-8.65625-2.933594-17.757813-4.847657-27.214844-5.597657v-56.457031h-16v56.433594c-9.414062.582031-18.601562 2.328125-27.425781 5.160156l-22.125-53.441406-14.785157 6.128906 22.039063 53.222656c-8.445313 4.105469-16.375 9.207032-23.589844 15.3125l-40.464843-40.464844-11.3125 11.3125 40.238281 40.238282c-3.023438 3.394531-5.855469 6.984375-8.476563 10.777344l-8.488281 12.265624-51.34375-21.273437-6.128906 14.785156 48.152343 19.949219-18.929687 27.347656-41.792969-20.898437-7.160156 14.3125 39.753906 19.871093-17.542968 25.335938-39.050782-19.519531-7.160156 14.3125 37.007812 18.503906-17.542968 25.34375-36.304688-18.152344-7.160156 14.3125 34.265625 17.128907-.257813.367187c-9.421874 13.625-14.414062 29.59375-14.414062 46.175781 0 19.496094 6.921875 37.398438 18.425781 51.417969l-16.082031 16.078125 11.3125 11.3125 16.078125-16.082031c14.007813 11.503906 31.914063 18.425781 51.417969 18.425781 16.582031 0 32.550781-4.992188 46.191406-14.433594l.367188-.253906 17.128906 34.261719 14.3125-7.160157-18.152344-36.300781 25.34375-17.546875 18.503906 37.007813 14.3125-7.160157-19.519531-39.046874 25.335937-17.542969 19.871094 39.75 14.3125-7.160157-20.894531-41.789062 27.34375-18.929688 19.949219 48.152344 14.785156-6.128906-21.273438-51.34375 12.265626-8.488281c3.785156-2.621094 7.382812-5.453125 10.777343-8.480469l40.238281 40.25 11.3125-11.3125-40.457031-40.464844c6.097657-7.207031 11.199219-15.136718 15.304688-23.582031l53.222656 22.039063 6.128906-14.785157-53.4375-22.125c2.832031-8.824219 4.566407-18.011719 5.160157-27.425781zm-113.785156 72.734375-143.984375 99.679687c-10.941407 7.578126-23.765625 11.585938-37.078125 11.585938-15.082032 0-28.945313-5.199219-40-13.832031l12.503906-12.503907-11.3125-11.3125-12.503906 12.503907c-8.640625-11.054688-13.832032-24.917969-13.832032-40 0-13.3125 4.007813-26.144531 11.585938-37.085938l99.679688-143.984375c18.109374-26.167968 47.910156-41.785156 79.734374-41.785156 53.488282 0 96.992188 43.503906 96.992188 96.992188 0 31.824218-15.617188 61.625-41.785156 79.742187zm0 0"/><path d="m289.601562 108.800781 12.792969-9.597656 24 32-12.792969 9.597656zm0 0"/><path d="m347.183594 201.609375 32.003906-23.992187 9.59375 12.792968-32.003906 23.992188zm0 0"/><path d="m216 208h32v16h-32zm0 0"/><path d="m296 240h16v32h-16zm0 0"/><path d="m210.339844 298.339844 32.003906-32 11.3125 11.3125-32 32zm0 0"/><path d="m152 280h32v16h-32zm0 0"/><path d="m248 144h32v16h-32zm0 0"/><path d="m290.34375 194.34375 24-24.003906 11.3125 11.3125-24 24.003906zm0 0"/><path d="m360 120h32v16h-32zm0 0"/><path d="m176 432h16v16h-16zm0 0"/><path d="m120 448h16v16h-16zm0 0"/><path d="m80 408h16v16h-16zm0 0"/><path d="m56 360h16v16h-16zm0 0"/><path d="m32 312h16v16h-16zm0 0"/><path d="m40 392h16v16h-16zm0 0"/><path d="m424 376h16v16h-16zm0 0"/><path d="m440 408h16v16h-16zm0 0"/><path d="m384 432h16v16h-16zm0 0"/><path d="m400 400h16v16h-16zm0 0"/><path d="m416 448h16v16h-16zm0 0"/><path d="m80 32h16v16h-16zm0 0"/><path d="m96 64h16v16h-16zm0 0"/><path d="m40 88h16v16h-16zm0 0"/><path d="m56 56h16v16h-16zm0 0"/><path d="m72 104h16v16h-16zm0 0"/></svg>