<?xml version="1.0" encoding="UTF-8" standalone="no"?>
<!DOCTYPE svg PUBLIC "-//W3C//DTD SVG 1.1//EN" "http://www.w3.org/Graphics/SVG/1.1/DTD/svg11.dtd">
<svg width="100%" height="100%" viewBox="0 0 750 731" version="1.1" xmlns="http://www.w3.org/2000/svg" xmlns:xlink="http://www.w3.org/1999/xlink" xml:space="preserve" xmlns:serif="http://www.serif.com/" style="fill-rule:evenodd;clip-rule:evenodd;stroke-linecap:round;stroke-linejoin:round;">
    <g transform="matrix(3.125,0,0,3.125,0,0)">
        <g transform="matrix(1,0,0,1,-127.631,-341.205)">
            <path d="M342.736,364.536L343.801,365.601C361.85,383.65 362.246,413.117 343.801,430.762L217.489,551.594C199.043,569.238 170.378,569.643 152.328,551.594L151.263,550.529C133.214,532.479 132.818,503.013 151.263,485.368L277.575,364.536C296.021,346.891 324.686,346.486 342.736,364.536L342.736,364.536Z" style="fill:none;fill-rule:nonzero;stroke:rgb(30,136,229);stroke-width:19.89px;"/>
        </g>
        <g transform="matrix(1,0,0,1,-127.631,-341.205)">
            <path d="M204.12,434.568L270.872,502.077L182.208,567.625L133.02,522.218L204.12,434.568Z" style="fill:rgb(30,136,229);stroke:rgb(30,136,229);stroke-width:0.7px;stroke-linecap:butt;stroke-linejoin:miter;"/>
        </g>
        <g transform="matrix(0.707107,-0.707107,0.707107,0.707107,160.641,104.576)">
            <text x="0px" y="0px" style="font-family:'LucidaGrande', 'Lucida Grande', sans-serif;font-weight:500;font-size:60.207px;fill:rgb(30,136,229);stroke:rgb(30,136,229);stroke-width:4.62px;stroke-linecap:butt;">+</text>
        </g>
    </g>
</svg>
