<svg id="Layer_5" enable-background="new 0 0 64 64" height="512" viewBox="0 0 64 64" width="512" xmlns="http://www.w3.org/2000/svg"><path d="m22 33.118-1.599-1.919c-.321-.427-.456-.953-.38-1.482.076-.528.353-.996.78-1.317.35-.262.765-.4 1.199-.4.627 0 1.226.3 1.601.802l3.499 4.198z" fill="#f0bc5e"/><path d="m31.183 37.901 2.416 2.9c.321.427.456.953.38 1.482-.076.528-.353.996-.78 1.317-.35.262-.764.4-1.199.4-.628 0-1.227-.3-1.602-.802l-4.331-5.198z" fill="#f0bc5e"/><path d="m61 57v2c0 1.103-.897 2-2 2h-54c-1.103 0-2-.897-2-2s.897-2 2-2h14 1 11 7v-2h-3.556c.344-.591.556-1.268.556-2 0-2.206-1.794-4-4-4h-12v2h12c1.103 0 2 .897 2 2s-.897 2-2 2h-11c-2.757 0-5-2.243-5-5s2.243-5 5-5h18v-2h-17v-4h9.5c1.93 0 3.5-1.57 3.5-3.5s-1.57-3.5-3.5-3.5h-1.5v-3.586l7.786-7.786c1.392.708 2.684 1.629 3.82 2.766 2.833 2.833 4.394 6.599 4.394 10.606v8h2v-8c0-4.541-1.768-8.811-4.979-12.021-2.071-2.071-4.586-3.532-7.327-4.315 2.578-1.584 4.306-4.422 4.306-7.664 0-4.963-4.038-9-9-9s-9 4.037-9 9c0 3.242 1.728 6.079 4.306 7.664-2.741.783-5.256 2.244-7.327 4.315-3.211 3.211-4.979 7.48-4.979 12.021 0 2.757 2.243 5 5 5h1v4.08c-2.124.306-3.939 1.566-5 3.333-1.225-2.04-3.452-3.413-6-3.413-3.86 0-7 3.141-7 7 0 2.124.955 4.027 2.454 5.312-1.44.606-2.454 2.03-2.454 3.688 0 2.206 1.794 4 4 4h54c2.206 0 4-1.794 4-4v-2zm-38-47c0-3.859 3.14-7 7-7s7 3.141 7 7-3.14 7-7 7-7-3.141-7-7zm7 9c1.657 0 3.267.281 4.792.794l-4.792 4.792-4.792-4.792c1.526-.513 3.136-.794 4.792-.794zm-15 15c0-4.007 1.56-7.773 4.393-10.606 1.137-1.137 2.428-2.057 3.821-2.766l5.372 5.372-1.586 1.586v4.414h-8v2h8 2 1.5c.827 0 1.5.673 1.5 1.5s-.673 1.5-1.5 1.5h-12.5c-1.654 0-3-1.346-3-3zm.111 21h-2.221c.429-.42.8-.896 1.111-1.413.31.517.681.993 1.11 1.413zm-12.111-5c0-2.757 2.243-5 5-5s5 2.243 5 5-2.243 5-5 5-5-2.243-5-5z"/><path d="m39 31h2v11h-2z"/><path d="m63 59h-26v-18h26z" fill="#f0bc5e"/><path d="m59 55h-2v-2h2zm0-4h-2v-2h2zm0-4h-2v-2h2z"/></svg>