<svg id="Layer_5" enable-background="new 0 0 64 64" height="512" viewBox="0 0 64 64" width="512" xmlns="http://www.w3.org/2000/svg"><path d="m15.957 27c-.906 0-1.758-.399-2.338-1.095l-4.087-4.905h-3.532c-2.757 0-5-2.243-5-5v-10c0-2.757 2.243-5 5-5h14c2.757 0 5 2.243 5 5v10c0 2.757-2.243 5-5 5h-1v2.957c0 1.678-1.365 3.043-3.043 3.043zm-9.957-24c-1.654 0-3 1.346-3 3v10c0 1.654 1.346 3 3 3h4.468l4.687 5.624c.199.239.491.376.802.376.575 0 1.043-.468 1.043-1.043v-4.957h3c1.654 0 3-1.346 3-3v-10c0-1.654-1.346-3-3-3z"/><path d="m53 .586-4.414 4.414 3 3-3.586 3.586-2-2-3.983 3.983-2-2-28.431 28.431 2 2-3 3 2 2-5 5 1.5 1.5-6.793 6.793 1.414 1.414 6.793-6.793 1.5 1.5 5-5 2 2 3-3 2 2 8.457-8.457-1.414-1.414-7.043 7.043-9.586-9.586 1.586-1.586 4.293 4.293 1.414-1.414-4.293-4.293 1.586-1.586 2.293 2.293 1.414-1.414-2.293-2.293 1.586-1.586 4.293 4.293 1.414-1.414-4.293-4.293 1.586-1.586 2.293 2.293 1.414-1.414-2.293-2.293 1.586-1.586 4.293 4.293 1.414-1.414-4.293-4.293 1.586-1.586 2.293 2.293 1.414-1.414-2.293-2.293 1.586-1.586 4.293 4.293 1.414-1.414-4.293-4.293 1.586-1.586 2.293 2.293 1.414-1.414-2.293-2.293 1.603-1.603 9.586 9.586-9.041 9.04 1.414 1.414 10.455-10.454-2-2 3.983-3.983-2-2 3.586-3.586 3 3 4.414-4.414zm-41 53-1.586-1.586 3.586-3.586 1.586 1.586zm3-10.172 5.586 5.586-1.586 1.586-5.586-5.586zm34.017-22.845-5.586-5.586 2.569-2.569 5.586 5.586zm1.983-5.983-1.586-1.586 3.586-3.586 1.586 1.586zm.414-9.586 1.586-1.586 7.586 7.586-1.586 1.586z"/><path d="m16 17h-6v-3h-3v-6h3v-3h6v3h3v6h-3z" fill="#f0bc5e"/><path d="m40 63c-6.617 0-12-5.383-12-12v-.399c0-2.569.803-5.023 2.323-7.096l9.677-13.196 9.677 13.195c1.52 2.073 2.323 4.527 2.323 7.097v.399c0 6.617-5.383 12-12 12z" fill="#f0bc5e"/><path d="m40 59v-2c.584 0 1.161-.084 1.713-.249l.573 1.916c-.739.221-1.508.333-2.286.333z"/><path d="m44.573 57.561-1.146-1.639c.584-.408 1.087-.911 1.495-1.495l1.64 1.146c-.543.776-1.212 1.445-1.989 1.988z"/><path d="m47.667 53.286-1.916-.572c.165-.554.249-1.13.249-1.714v-.399c0-1.285-.402-2.512-1.162-3.549l-4.645-6.333 1.613-1.184 4.645 6.334c1.013 1.383 1.549 3.019 1.549 4.732v.399c0 .778-.112 1.548-.333 2.286z"/></svg>