<?xml version="1.0" encoding="UTF-8" standalone="no"?>
<!DOCTYPE svg PUBLIC "-//W3C//DTD SVG 1.1//EN" "http://www.w3.org/Graphics/SVG/1.1/DTD/svg11.dtd">
<svg width="100%" height="100%" viewBox="0 0 1510 1514" version="1.1" xmlns="http://www.w3.org/2000/svg" xmlns:xlink="http://www.w3.org/1999/xlink" xml:space="preserve" xmlns:serif="http://www.serif.com/" style="fill-rule:evenodd;clip-rule:evenodd;stroke-linejoin:round;stroke-miterlimit:2;">
    <g transform="matrix(3.125,0,0,3.125,0,0)">
        <g transform="matrix(1,0,0,1,241.504,460.911)">
            <path d="M0,-437.542C-58.436,-437.542 -113.374,-414.786 -154.695,-373.466C-196.016,-332.146 -218.771,-277.207 -218.771,-218.771C-218.771,-160.335 -196.016,-105.397 -154.695,-64.076C-113.374,-22.756 -58.436,0 0,0C58.436,0 113.374,-22.756 154.694,-64.076C196.015,-105.397 218.771,-160.336 218.771,-218.771C218.771,-277.207 196.015,-332.146 154.694,-373.466C113.374,-414.786 58.436,-437.542 0,-437.542M0,22.732C-64.508,22.732 -125.155,-2.389 -170.769,-48.003C-216.383,-93.616 -241.504,-154.264 -241.504,-218.771C-241.504,-283.279 -216.383,-343.926 -170.769,-389.54C-125.155,-435.153 -64.508,-460.274 0,-460.274C64.508,-460.274 125.154,-435.153 170.769,-389.54C216.382,-343.926 241.503,-283.279 241.503,-218.771C241.503,-154.264 216.382,-93.616 170.769,-48.003C125.154,-2.389 64.508,22.732 0,22.732" style="fill:rgb(38,72,95);fill-rule:nonzero;"/>
        </g>
        <g transform="matrix(1,0,0,1,241.504,460.274)">
            <path d="M0,-436.268C-23.068,-436.268 -46.461,-414.242 -64.179,-375.837C-83.521,-333.914 -94.173,-277.907 -94.173,-218.134C-94.173,-158.362 -83.521,-102.355 -64.179,-60.43C-46.461,-22.026 -23.068,0.001 0,0.001C23.068,0.001 46.46,-22.026 64.178,-60.43C83.521,-102.355 94.172,-158.362 94.172,-218.134C94.172,-277.907 83.521,-333.914 64.178,-375.837C46.46,-414.242 23.068,-436.268 0,-436.268M0,24.006C-33.313,24.006 -63.848,-2.41 -85.977,-50.374C-106.742,-95.384 -118.179,-154.962 -118.179,-218.134C-118.179,-281.305 -106.742,-340.883 -85.977,-385.894C-63.848,-433.858 -33.313,-460.274 0,-460.274C33.313,-460.274 63.847,-433.858 85.976,-385.893C106.741,-340.883 118.178,-281.305 118.178,-218.134C118.178,-154.963 106.741,-95.384 85.976,-50.374C63.847,-2.41 33.313,24.006 0,24.006" style="fill:rgb(38,72,95);fill-rule:nonzero;"/>
        </g>
        <g transform="matrix(1,0,0,1,241.504,159.898)">
            <path d="M0,-59.827C-52.463,-59.827 -101.939,-56.119 -139.317,-49.386C-190.389,-40.186 -193.896,-30.001 -193.908,-29.902C-193.896,-29.825 -190.386,-19.639 -139.313,-10.44C-101.937,-3.708 -52.461,0 0,0C52.461,0 101.937,-3.708 139.313,-10.44C189.64,-19.506 193.782,-29.528 193.904,-29.913C193.782,-30.298 189.643,-40.32 139.317,-49.386C101.939,-56.119 52.463,-59.827 0,-59.827M0,14.16C-54.103,14.16 -105.029,10.271 -143.401,3.208C-162.39,-0.287 -177.4,-4.402 -188.018,-9.022C-192.977,-11.18 -208.067,-17.747 -208.067,-29.913C-208.067,-42.08 -192.977,-48.646 -188.018,-50.805C-177.4,-55.425 -162.39,-59.54 -143.401,-63.035C-105.03,-70.098 -54.103,-73.987 0,-73.987C54.103,-73.987 105.029,-70.098 143.4,-63.035C162.389,-59.54 177.399,-55.425 188.017,-50.805C192.976,-48.646 208.066,-42.08 208.066,-29.913C208.066,-17.747 192.976,-11.18 188.017,-9.022C177.399,-4.402 162.389,-0.287 143.4,3.208C105.029,10.271 54.103,14.16 0,14.16" style="fill:rgb(38,72,95);fill-rule:nonzero;"/>
        </g>
        <g transform="matrix(1,0,0,1,19.1495,240.452)">
            <path d="M0,0C1.587,2.025 11.616,11.277 65.99,19.483C108.438,25.891 163.969,29.418 222.354,29.418C280.74,29.418 336.271,25.891 378.718,19.483C433.092,11.277 443.121,2.025 444.708,0C443.121,-2.025 433.091,-11.277 378.717,-19.483C336.27,-25.89 280.739,-29.418 222.354,-29.418C163.97,-29.418 108.438,-25.89 65.991,-19.483C11.617,-11.277 1.587,-2.025 0,0M222.354,44.57C160.492,44.57 102.272,40.688 58.42,33.639C36.777,30.16 19.683,26.069 7.61,21.481C-15.359,12.752 -15.359,3.154 -15.359,0C-15.359,-12.752 1.93,-19.322 7.61,-21.481C19.683,-26.069 36.777,-30.159 58.42,-33.639C102.273,-40.688 160.493,-44.57 222.354,-44.57C284.216,-44.57 342.436,-40.688 386.288,-33.639C407.931,-30.159 425.025,-26.069 437.098,-21.481C460.067,-12.752 460.067,-3.154 460.067,0C460.067,12.752 442.778,19.322 437.098,21.481C425.025,26.069 407.931,30.16 386.288,33.639C342.436,40.688 284.217,44.57 222.354,44.57" style="fill:rgb(38,72,95);fill-rule:nonzero;"/>
        </g>
        <g transform="matrix(1,0,0,1,245.961,387.61)">
            <path d="M0,-60.094C-51.26,-60.094 -99.387,-56.289 -135.516,-49.382C-177.886,-41.282 -186.547,-32.071 -186.547,-30.047C-186.547,-28.024 -177.886,-18.812 -135.516,-10.711C-99.387,-3.804 -51.26,0.001 0,0.001C51.26,0.001 99.387,-3.804 135.516,-10.711C177.886,-18.812 186.547,-28.024 186.547,-30.047C186.547,-32.071 177.886,-41.282 135.516,-49.382C99.387,-56.289 51.26,-60.094 0,-60.094M0,13.893C-52.108,13.893 -101.162,10.002 -138.125,2.934C-156.431,-0.565 -170.906,-4.688 -181.148,-9.318C-185.92,-11.474 -200.439,-18.037 -200.439,-30.047C-200.439,-42.057 -185.92,-48.619 -181.148,-50.777C-170.906,-55.407 -156.431,-59.529 -138.125,-63.029C-101.162,-70.095 -52.108,-73.987 0,-73.987C52.108,-73.987 101.162,-70.095 138.125,-63.029C156.431,-59.529 170.906,-55.407 181.148,-50.777C185.92,-48.619 200.439,-42.057 200.439,-30.047C200.439,-18.037 185.92,-11.474 181.148,-9.318C170.906,-4.688 156.431,-0.565 138.125,2.934C101.162,10.002 52.108,13.893 0,13.893" style="fill:rgb(38,72,95);fill-rule:nonzero;"/>
        </g>
        <g transform="matrix(0,-1,-1,0,223.743,64.3193)">
            <path d="M-28.672,-28.672C-44.507,-28.672 -57.344,-15.835 -57.344,0C-57.344,15.835 -44.507,28.672 -28.672,28.672C-12.837,28.672 0,15.835 0,0C0,-15.835 -12.837,-28.672 -28.672,-28.672" style="fill:rgb(38,72,95);fill-rule:nonzero;"/>
        </g>
        <g transform="matrix(0,-1,-1,0,395.886,120.113)">
            <path d="M-28.672,-28.672C-44.507,-28.672 -57.344,-15.835 -57.344,0C-57.344,15.835 -44.507,28.672 -28.672,28.672C-12.837,28.672 0,15.835 0,0C0,-15.835 -12.837,-28.672 -28.672,-28.672" style="fill:rgb(38,72,95);fill-rule:nonzero;"/>
        </g>
        <g transform="matrix(0,-1,-1,0,195.071,248.774)">
            <path d="M-28.672,-28.672C-44.507,-28.672 -57.344,-15.835 -57.344,0C-57.344,15.835 -44.507,28.672 -28.672,28.672C-12.837,28.672 0,15.835 0,0C0,-15.835 -12.837,-28.672 -28.672,-28.672" style="fill:rgb(38,72,95);fill-rule:nonzero;"/>
        </g>
        <g transform="matrix(0,-1,-1,0,262.616,360.819)">
            <path d="M-28.673,-28.672C-44.508,-28.672 -57.345,-15.835 -57.345,0C-57.345,15.836 -44.508,28.673 -28.673,28.673C-12.837,28.673 0,15.836 0,0C0,-15.835 -12.837,-28.672 -28.673,-28.672" style="fill:rgb(38,72,95);fill-rule:nonzero;"/>
        </g>
    </g>
</svg>
