<?xml version="1.0" encoding="UTF-8" standalone="no"?>
<!DOCTYPE svg PUBLIC "-//W3C//DTD SVG 1.1//EN" "http://www.w3.org/Graphics/SVG/1.1/DTD/svg11.dtd">
<svg width="100%" height="100%" viewBox="0 0 116 116" version="1.1" xmlns="http://www.w3.org/2000/svg" xmlns:xlink="http://www.w3.org/1999/xlink" xml:space="preserve" xmlns:serif="http://www.serif.com/" style="fill-rule:evenodd;clip-rule:evenodd;stroke-linejoin:round;stroke-miterlimit:2;">
    <g transform="matrix(3.125,0,0,3.125,0,0)">
        <g transform="matrix(1,0,0,1,-295.75,-449.85)">
            <path d="M319.89,450.751C315.097,449.255 310.408,449.622 305.822,451.85C301.347,454.21 298.288,457.79 296.645,462.588C295.153,467.433 295.526,472.13 297.765,476.68C300.12,481.124 303.682,484.167 308.451,485.81C313.242,487.313 317.932,486.952 322.521,484.73C327,482.374 330.064,478.799 331.712,474.002C333.21,469.159 332.843,464.462 330.61,459.91C328.262,455.464 324.704,452.416 319.937,450.766" style="fill:rgb(0,204,255);fill-rule:nonzero;"/>
            <path d="M298.763,464.91C297.992,464.674 297.13,464.492 296.178,464.364L296.18,464.365C295.273,468.583 295.801,472.688 297.765,476.68C299.886,480.683 302.986,483.549 307.066,485.28L306.396,483.926L305.29,481.291C305.211,480.931 305.163,480.525 305.147,480.074L305.201,477.815C305.169,477.247 305.093,476.81 304.972,476.501C304.886,476.26 304.713,476.073 304.452,475.94C303.358,475.506 302.756,475.24 302.645,475.144C302.451,475.009 302.33,474.852 302.281,474.672C302.196,474.131 302.172,473.643 302.211,473.209L302.673,469.869C302.662,469.079 302.548,468.356 302.334,467.698C301.849,466.712 301.479,466.154 301.225,466.025C300.921,465.794 300.103,465.424 298.77,464.912L298.763,464.91Z" style="fill:rgb(28,111,37);fill-rule:nonzero;"/>
            <path d="M319.937,450.766L319.89,450.751C315.545,449.395 311.286,449.569 307.112,451.273L307.115,451.274C307.701,451.674 308.3,451.985 308.91,452.209C309.607,452.417 310.414,452.5 311.331,452.457C311.87,452.468 312.982,452.254 314.669,451.815C314.957,451.776 315.165,451.777 315.295,451.819C315.306,451.822 315.318,451.826 315.329,451.83C315.513,451.891 315.697,452.013 315.88,452.195C316.625,453.244 317.23,453.933 317.696,454.265C317.913,454.434 318.133,454.577 318.356,454.693C319.169,455.122 319.659,455.364 319.826,455.419C319.865,455.432 319.886,455.435 319.89,455.427C320.307,455.558 320.706,455.61 321.086,455.583L324.661,454.929C325.211,454.859 325.719,454.858 326.187,454.923C326.411,454.953 326.64,455.007 326.874,455.085C326.966,455.115 327.059,455.15 327.153,455.188C325.175,453.22 322.769,451.747 319.937,450.766Z" style="fill:rgb(28,111,37);fill-rule:nonzero;"/>
            <path d="M329.554,460.16C328.222,459.718 326.755,459.458 325.154,459.381L323.179,459.537C322.056,459.5 321.286,459.508 320.87,459.559C320.725,459.581 320.036,459.51 318.805,459.345L313.23,459.395C313.102,459.411 312.931,459.499 312.715,459.661C311.781,460.567 310.975,461.244 310.298,461.693C310.113,461.854 310,462.015 309.96,462.177C309.897,462.539 310.133,462.881 310.669,463.205L314.101,464.366C314.355,464.438 314.612,464.467 314.87,464.452C315.038,464.473 315.448,464.362 316.101,464.121C316.346,464.085 316.53,464.088 316.652,464.129C316.686,464.14 316.716,464.154 316.74,464.171C316.92,464.254 317.056,464.446 317.148,464.745L317.227,466.398C317.266,466.605 317.346,466.758 317.468,466.856C317.653,467.006 318.014,467.17 318.553,467.349C318.59,467.361 318.627,467.374 318.666,467.386C319.945,467.675 320.742,467.871 321.057,467.976C321.168,468.013 321.219,468.038 321.21,468.052C321.491,468.15 321.811,468.513 322.169,469.14C322.345,469.576 322.213,470.162 321.772,470.898C321.581,471.277 321.003,471.686 320.037,472.126C319.892,472.249 319.748,472.457 319.605,472.749C319.357,473.282 319.213,474.214 319.174,475.543C319.159,476.192 319.288,476.626 319.562,476.843C319.699,476.986 319.964,477.164 320.358,477.378C322.028,478.142 322.835,478.548 322.776,478.595C323.15,478.84 323.419,479.227 323.583,479.754C323.705,480.124 323.692,480.631 323.542,481.274L322.265,484.852C322.35,484.812 322.436,484.771 322.521,484.73C327,482.374 330.064,478.799 331.712,474.002C333.064,469.632 332.897,465.381 331.21,461.248L331.213,461.249C331.116,461.134 331.02,461.02 330.926,460.907C330.635,460.618 330.28,460.404 329.859,460.264C329.847,460.26 329.834,460.256 329.822,460.252L329.816,460.25C329.73,460.219 329.642,460.189 329.554,460.16Z" style="fill:rgb(28,111,37);fill-rule:nonzero;"/>
        </g>
    </g>
</svg>
